<svg width="34" height="40" viewBox="0 0 34 40" fill="none" xmlns="http://www.w3.org/2000/svg">
<path d="M2.93439 13.1624H2.83574C1.5712 13.1624 0.540161 14.1967 0.540161 15.4579V25.4525C0.540161 26.7187 1.5712 27.7497 2.83574 27.7497H2.93606C4.2006 27.7497 5.23165 26.7154 5.23165 25.4525V15.4579C5.22997 14.1967 4.19733 13.1624 2.93439 13.1624Z" fill="white"/>
<path d="M6.33002 29.3104C6.33002 30.4713 7.2788 31.4168 8.43974 31.4168H10.6942V36.8154C10.6942 38.0832 11.7286 39.1142 12.9898 39.1142H13.0885C14.3547 39.1142 15.3873 38.0816 15.3873 36.8154V31.4168H18.538V36.8154C18.538 38.0832 19.5756 39.1142 20.8369 39.1142H20.9339C22.2 39.1142 23.2311 38.0816 23.2311 36.8154V31.4168H25.4872C26.6464 31.4168 27.5953 30.4713 27.5953 29.3104V13.5292H6.33002V29.3104Z" fill="white"/>
<path d="M22.2593 3.95874L24.05 1.19456C24.1651 1.02021 24.1141 0.781835 23.9382 0.668326C23.7639 0.553215 23.5255 0.600936 23.412 0.780158L21.5555 3.63978C20.1627 3.06918 18.6071 2.74855 16.9643 2.74855C15.3199 2.74855 13.7676 3.06918 12.3716 3.63978L10.5184 0.780158C10.4049 0.600936 10.1648 0.553215 9.98885 0.668326C9.8129 0.781759 9.76191 1.02021 9.87702 1.19456L11.6694 3.95874C8.43813 5.54231 6.25934 8.52688 6.25934 11.9505C6.25934 12.1609 6.27253 12.3681 6.29059 12.5737H27.6397C27.6577 12.3681 27.6692 12.1609 27.6692 11.9505C27.6693 8.52688 25.4888 5.54231 22.2593 3.95874ZM12.0147 8.90834C11.4474 8.90834 10.987 8.45118 10.987 7.88226C10.987 7.31334 11.4474 6.85777 12.0147 6.85777C12.5853 6.85777 13.0425 7.31326 13.0425 7.88226C13.0425 8.45126 12.582 8.90834 12.0147 8.90834ZM21.9123 8.90834C21.345 8.90834 20.8846 8.45118 20.8846 7.88226C20.8846 7.31334 21.345 6.85777 21.9123 6.85777C22.4813 6.85777 22.9384 7.31326 22.9384 7.88226C22.9384 8.45118 22.4813 8.90834 21.9123 8.90834Z" fill="white"/>
<path d="M31.0896 13.1624H30.9942C29.7297 13.1624 28.6954 14.1967 28.6954 15.4579V25.4525C28.6954 26.7187 29.7314 27.7497 30.9942 27.7497H31.0913C32.3574 27.7497 33.3869 26.7154 33.3869 25.4525V15.4579C33.3869 14.1967 32.3541 13.1624 31.0896 13.1624Z" fill="white"/>
</svg>
