<svg width="34" height="41" viewBox="0 0 34 41" fill="none" xmlns="http://www.w3.org/2000/svg">
<path d="M2.25717 15.1913C-1.14083 21.0879 1.01934 30.0362 4.77697 35.462C6.65262 38.1746 8.5516 40.6095 11.1526 40.6095C11.2016 40.6095 11.2508 40.6086 11.3011 40.6066C12.5231 40.5578 13.4062 40.1816 14.26 39.818C15.2186 39.4095 16.21 38.9871 17.765 38.9871C19.2444 38.9871 20.1885 39.3958 21.1015 39.7909C22.0013 40.1802 22.9281 40.5829 24.2976 40.5572C27.2273 40.5026 29.0262 37.8752 30.6132 35.5572C32.2693 33.1371 33.1001 30.7873 33.3804 29.8893L33.3917 29.8536C33.4451 29.694 33.3697 29.5198 33.2167 29.4496C33.2125 29.4476 33.1969 29.4411 33.1926 29.4393C32.6767 29.2283 28.151 27.2206 28.1034 21.7485C28.0593 17.3027 31.4985 14.9484 32.1883 14.5217L32.2204 14.5017C32.2952 14.4536 32.3472 14.3773 32.3649 14.29C32.3825 14.2029 32.3641 14.1122 32.314 14.039C29.9401 10.5649 26.3016 10.0414 24.8367 9.97838C24.6241 9.95716 24.4047 9.94649 24.1844 9.94649C22.4638 9.94649 20.8156 10.5963 19.4915 11.1184C18.5774 11.4788 17.7879 11.7901 17.2434 11.7901C16.6315 11.7901 15.8376 11.475 14.9181 11.1103C13.6886 10.6223 12.295 10.0693 10.8197 10.0693C10.7845 10.0693 10.7499 10.0697 10.7157 10.0704C7.28544 10.1208 4.04413 12.0833 2.25717 15.1913Z" fill="white"/>
<path d="M24.8398 0.416315C22.7625 0.500919 20.2707 1.7796 18.7813 3.52413C17.5155 4.99047 16.279 7.43528 16.6048 9.89961C16.6252 10.0538 16.7507 10.1728 16.9058 10.1848C17.046 10.1957 17.1891 10.2013 17.3317 10.2014C19.3628 10.2014 21.554 9.07768 23.0504 7.26832C24.6253 5.35774 25.4216 2.90581 25.1807 0.709529C25.1618 0.537422 25.0104 0.409594 24.8398 0.416315Z" fill="white"/>
</svg>
