<svg width="534" height="174" viewBox="0 0 534 174" fill="none" xmlns="http://www.w3.org/2000/svg">
<g filter="url(#filter0_d_2_10)">
<path d="M113.848 59.2466C113.848 73.2951 109.691 84.1612 101.376 91.8449C93.1192 99.4713 81.3643 103.284 66.1116 103.284H56.5643V145H22.5898V19.2512H66.1116C81.9951 19.2512 93.922 22.7204 101.892 29.6586C109.863 36.5969 113.848 46.4595 113.848 59.2466ZM56.5643 75.5887H62.7572C67.8605 75.5887 71.9031 74.1552 74.8848 71.2882C77.9239 68.4211 79.4434 64.4646 79.4434 59.4186C79.4434 50.9321 74.7414 46.6889 65.3375 46.6889H56.5643V75.5887ZM133.889 145V19.2512H167.863V117.562H216.288V145H133.889ZM313.567 145L307.374 121.433H266.518L260.154 145H222.825L263.852 18.7352H309.18L350.724 145H313.567ZM300.321 93.5651L294.902 72.9224C293.641 68.3351 292.092 62.4003 290.258 55.118C288.48 47.8357 287.304 42.6177 286.731 39.4639C286.215 42.3883 285.183 47.205 283.635 53.9138C282.144 60.6227 278.789 73.8398 273.571 93.5651H300.321ZM409.297 65.8694L430.972 19.2512H467.785L426.414 95.8874V145H392.181V96.9196L350.81 19.2512H387.795L409.297 65.8694ZM475.182 130.722C475.182 125.447 476.73 121.376 479.827 118.508C482.981 115.641 487.539 114.208 493.503 114.208C499.179 114.208 503.537 115.641 506.576 118.508C509.615 121.376 511.135 125.447 511.135 130.722C511.135 135.883 509.558 139.925 506.404 142.85C503.308 145.717 499.007 147.15 493.503 147.15C487.826 147.15 483.353 145.717 480.085 142.85C476.816 139.983 475.182 135.94 475.182 130.722Z" fill="white"/>
</g>
<defs>
<filter id="filter0_d_2_10" x="0.692034" y="0.98783" width="532.341" height="172.211" filterUnits="userSpaceOnUse" color-interpolation-filters="sRGB">
<feFlood flood-opacity="0" result="BackgroundImageFix"/>
<feColorMatrix in="SourceAlpha" type="matrix" values="0 0 0 0 0 0 0 0 0 0 0 0 0 0 0 0 0 0 127 0" result="hardAlpha"/>
<feOffset dy="4.15047"/>
<feGaussianBlur stdDeviation="10.9489"/>
<feColorMatrix type="matrix" values="0 0 0 0 0 0 0 0 0 0 0 0 0 0 0 0 0 0 0.25 0"/>
<feBlend mode="normal" in2="BackgroundImageFix" result="effect1_dropShadow_2_10"/>
<feBlend mode="normal" in="SourceGraphic" in2="effect1_dropShadow_2_10" result="shape"/>
</filter>
</defs>
</svg>
